<svg width="444" height="443" viewBox="0 0 444 443" fill="none" xmlns="http://www.w3.org/2000/svg">
<path d="M193.1 0.00214696C183 0.00214696 172.9 0.202147 162.9 0.502147L169 66.1021L107.9 3.60215C76.6 6.10215 45.4 10.2021 14.1 16.1021L48.3 44.5021L0.299999 43.9021C35.4 144.102 7.2 226.502 0 336.002L95.7 441.802C105.7 440.502 115.6 439.402 125.3 438.502L146.8 396.302L165.4 425.102L206.9 391.602L207.7 434.602C290.6 434.402 365.4 443.702 443.4 442.502C415.2 369.502 412.2 298.902 411.5 233.302L378.2 214.202L410.9 180.302C410.5 159.002 409.6 138.302 407.3 118.402L349.9 119.102L400.1 77.4021C396.3 61.9021 391.1 47.0021 384 32.7021L354.5 8.80215C300.7 3.30215 246.9 -0.097853 193.1 0.00214696ZM251.8 37.0021C262.4 61.7521 272.9 86.5021 283.5 111.302C291 100.802 298.4 90.3021 305.9 79.8021C321.9 107.002 337.9 134.102 353.9 161.302L337.7 170.802L304.4 114.102L261.9 173.502L246.7 162.602L270.7 129.102L248.8 77.6021L224.2 117.702L236.2 140.302L219.7 149.102L201.4 114.602L176.6 172.802L159.4 165.402L191.9 89.2021L199.6 71.2021C204.4 80.4021 209.2 89.5021 214.1 98.6021C226.6 78.0021 239.2 57.4921 251.8 37.0021ZM56.9 93.3021C63.62 94.9021 70.3 96.7021 76.1 98.6021C74 104.502 72 110.402 69.9 116.202C64.11 114.602 58.18 112.802 53 111.502C54.39 105.502 55.62 99.4021 56.9 93.3021ZM94.8 106.702C101.1 110.502 106.8 113.902 111.8 119.502L98.3 132.302C94.3 128.602 89.7 125.302 85.5 122.902L94.8 106.702ZM123.5 139.002C125.6 146.402 125.6 154.702 125.1 161.502L106.6 159.102C106.7 154.002 106.9 149.102 105.6 144.602L123.5 139.002ZM102.3 174.702L119.5 181.802C116.2 188.402 114.4 194.502 110.9 199.602L94.6 190.602C97.2 185.202 100.2 179.802 102.3 174.702ZM85.8 208.802L103.5 214.902C102 220.302 100.5 226.102 99.9 231.102L81.3 229.102C82.6 221.602 83.4 215.102 85.8 208.802ZM293.6 226.202C302.1 227.202 308.2 229.202 315.3 233.302L305.5 249.302C301.4 246.502 296.1 245.502 292 244.802L293.6 226.202ZM272.4 227.702C273.5 233.802 274.9 239.902 276.3 246.002C270.4 247.302 264.6 249.302 259.8 251.102L253 233.702C259.7 231.302 266.5 229.002 272.4 227.702ZM234.5 243.602L245.5 258.702C239.9 262.702 233.7 266.502 228.7 269.302L219.8 252.902C224.9 250.002 230.4 246.602 234.5 243.602ZM101 246.302C102.5 251.002 105.2 255.502 107.9 258.402L94.1 271.002C88.6 265.302 84.6 257.502 82.9 250.902L101 246.302ZM331.3 249.602C334.8 256.002 338.1 262.302 340 268.702L322.2 274.302C320.2 268.902 317.9 263.502 315.4 259.502L331.3 249.602ZM203.9 260.502L210.8 277.802C204.4 280.502 197.9 282.602 192.2 284.302L187.2 266.302C193.1 264.702 198.5 262.502 203.9 260.502ZM120.1 266.702C125.4 268.402 130.9 270.102 135.8 270.902C134.6 277.002 133.8 283.202 133 289.402C126 288.402 118.5 286.102 112.5 283.702L120.1 266.702ZM170.1 270.202L172.9 288.702C165.7 290.002 159.5 290.302 153.1 290.602L152.7 271.902C158.6 271.702 164.3 271.102 170.1 270.202ZM344.6 288.202C345.6 294.602 346.2 301.102 346.8 307.502L328.1 309.002C327.7 303.002 327.2 297.102 326.1 291.202L344.6 288.202ZM277 319.002C295.9 322.502 321.9 335.202 345.9 352.902C353.3 343.002 360.3 332.502 367.2 321.802L397.3 334.702C392.6 347.002 382.3 360.302 368.7 371.902C385.7 388.102 399.6 406.402 405.7 424.902C391.9 406.802 374.6 393.102 355.4 382.102C332 397.902 302.7 408.002 275.8 402.502C298.7 398.102 316.4 385.902 331.6 369.902C315.1 362.402 297.8 356.002 280.3 349.802L277 319.002Z" fill="#8C8C8C"/>
</svg>
